<svg width="40" height="40" viewBox="0 0 40 40" fill="none" xmlns="http://www.w3.org/2000/svg">
<path d="M19.9997 36.6667C10.7947 36.6667 3.33301 29.205 3.33301 20C3.33301 10.795 10.7947 3.33334 19.9997 3.33334C29.2047 3.33334 36.6663 10.795 36.6663 20C36.6663 29.205 29.2047 36.6667 19.9997 36.6667ZM33.333 20C33.3325 17.0623 32.3618 14.2071 30.5718 11.8778C28.7818 9.54847 26.2726 7.87554 23.434 7.11886C20.5955 6.36218 17.5865 6.56413 14.8746 7.69332C12.1626 8.82251 9.89944 10.8157 8.43672 13.3633C6.97399 15.9109 6.39356 18.8703 6.78561 21.7817C7.17766 24.6931 8.52023 27.3935 10.6047 29.4634C12.6893 31.5334 15.399 32.8569 18.3131 33.2285C21.2272 33.6001 24.1824 32.9989 26.7197 31.5183L25.0397 28.64C23.1368 29.7504 20.9204 30.2013 18.7349 29.9227C16.5494 29.644 14.5171 28.6514 12.9537 27.099C11.3903 25.5467 10.3833 23.5215 10.0892 21.338C9.79506 19.1545 10.2302 16.935 11.3271 15.0243C12.424 13.1136 14.1212 11.6186 16.1551 10.7715C18.189 9.92451 20.4456 9.77286 22.5745 10.3402C24.7035 10.9075 26.5854 12.1619 27.9281 13.9087C29.2708 15.6555 29.999 17.7968 29.9997 20V21.6667C29.9997 22.1087 29.8241 22.5326 29.5115 22.8452C29.199 23.1577 28.775 23.3333 28.333 23.3333C27.891 23.3333 27.4671 23.1577 27.1545 22.8452C26.8419 22.5326 26.6663 22.1087 26.6663 21.6667V15H24.4097C23.4427 14.1471 22.2492 13.5929 20.9737 13.4045C19.6983 13.2161 18.3955 13.4016 17.2233 13.9386C16.0511 14.4755 15.0597 15.3409 14.3693 16.4298C13.6789 17.5187 13.3191 18.7844 13.3334 20.0737C13.3477 21.3629 13.7356 22.6204 14.45 23.6937C15.1645 24.767 16.1748 25.6101 17.3586 26.1209C18.5425 26.6316 19.8491 26.7882 21.12 26.5715C22.391 26.3548 23.5719 25.7742 24.5197 24.9C25.1819 25.6808 26.0678 26.2396 27.0577 26.5007C28.0477 26.7618 29.0939 26.7127 30.0551 26.3601C31.0163 26.0075 31.846 25.3683 32.4323 24.529C33.0185 23.6896 33.3329 22.6905 33.333 21.6667V20ZM19.9997 16.6667C20.8837 16.6667 21.7316 17.0179 22.3567 17.643C22.9818 18.2681 23.333 19.116 23.333 20C23.333 20.8841 22.9818 21.7319 22.3567 22.357C21.7316 22.9822 20.8837 23.3333 19.9997 23.3333C19.1156 23.3333 18.2678 22.9822 17.6427 22.357C17.0175 21.7319 16.6663 20.8841 16.6663 20C16.6663 19.116 17.0175 18.2681 17.6427 17.643C18.2678 17.0179 19.1156 16.6667 19.9997 16.6667Z" fill="#403D39"/>
</svg>
