<svg width="34" height="34" viewBox="0 0 34 34" fill="none" xmlns="http://www.w3.org/2000/svg">
<path d="M16.6667 33.3333C7.46167 33.3333 0 25.8717 0 16.6667C0 7.46167 7.46167 0 16.6667 0C25.8717 0 33.3333 7.46167 33.3333 16.6667C33.3333 25.8717 25.8717 33.3333 16.6667 33.3333ZM16.6667 30C18.4177 30 20.1517 29.6551 21.7694 28.985C23.3872 28.3149 24.8572 27.3327 26.0953 26.0945C27.3335 24.8563 28.3157 23.3864 28.9858 21.7686C29.6559 20.1508 30.0008 18.4169 30.0008 16.6658C30.0008 14.9148 29.6559 13.1808 28.9858 11.5631C28.3157 9.94529 27.3335 8.47535 26.0953 7.23715C24.8572 5.99896 23.3872 5.01677 21.7694 4.34667C20.1517 3.67656 18.4177 3.33167 16.6667 3.33167C13.1302 3.33167 9.73863 4.73651 7.23799 7.23715C4.73735 9.73779 3.3325 13.1294 3.3325 16.6658C3.3325 20.2023 4.73735 23.5939 7.23799 26.0945C9.73863 28.5952 13.1302 30 16.6667 30ZM15 8.33333H18.3333V11.6667H15V8.33333ZM15 15H18.3333V25H15V15Z" fill="#FFFCF2"/>
</svg>
