<svg width="25" height="25" viewBox="0 0 40 40" fill="none" xmlns="http://www.w3.org/2000/svg">
<path d="M30.6071 25.8933L28.2504 23.5333L30.6071 21.1766C31.7811 20.0134 32.5826 18.5272 32.9097 16.9072C33.2368 15.2871 33.0746 13.6064 32.4439 12.0788C31.8132 10.5511 30.7424 9.24556 29.3677 8.32814C27.993 7.41071 26.3765 6.92287 24.7238 6.92665C23.6263 6.92906 22.5402 7.14821 21.5277 7.57151C20.5152 7.99481 19.5963 8.61393 18.8238 9.39331L16.4638 11.75L14.1071 9.39331L16.4671 7.03665C18.6551 4.84861 21.6227 3.61938 24.7171 3.61938C27.8114 3.61938 30.7791 4.84861 32.9671 7.03665C35.1551 9.22468 36.3844 12.1923 36.3844 15.2866C36.3844 18.381 35.1551 21.3486 32.9671 23.5366L30.6071 25.8933ZM25.8938 30.6066L23.5354 32.9633C22.452 34.0467 21.1658 34.9061 19.7503 35.4925C18.3348 36.0788 16.8176 36.3806 15.2854 36.3806C13.7533 36.3806 12.2361 36.0788 10.8206 35.4925C9.40502 34.9061 8.11883 34.0467 7.03543 32.9633C5.95202 31.8799 5.09262 30.5937 4.50628 29.1782C3.91995 27.7626 3.61816 26.2455 3.61816 24.7133C3.61816 23.1811 3.91995 21.664 4.50628 20.2484C5.09262 18.8329 5.95202 17.5467 7.03543 16.4633L9.39376 14.1066L11.7504 16.4666L9.39376 18.8233C8.61438 19.5959 7.99527 20.5148 7.57197 21.5273C7.14868 22.5398 6.92954 23.626 6.92714 24.7234C6.92474 25.8208 7.13912 26.9079 7.55797 27.9222C7.97682 28.9366 8.5919 29.8582 9.3679 30.6342C10.1439 31.4102 11.0655 32.0252 12.0799 32.4441C13.0942 32.863 14.1813 33.0773 15.2787 33.0749C16.3761 33.0725 17.4623 32.8534 18.4748 32.4301C19.4873 32.0068 20.4062 31.3877 21.1788 30.6083L23.5354 28.2516L25.8938 30.6066ZM24.7138 12.9283L27.0721 15.2866L15.2888 27.07L12.9288 24.7133L24.7138 12.9283Z" fill="#FFFCF2"/>
</svg>
