<svg width="30" height="30" viewBox="0 0 40 40" fill="none" xmlns="http://www.w3.org/2000/svg">
<path d="M20.6897 8.33333H34.9997C35.4417 8.33333 35.8656 8.50893 36.1782 8.82149C36.4907 9.13405 36.6663 9.55797 36.6663 10V33.3333C36.6663 33.7754 36.4907 34.1993 36.1782 34.5118C35.8656 34.8244 35.4417 35 34.9997 35H4.99967C4.55765 35 4.13372 34.8244 3.82116 34.5118C3.5086 34.1993 3.33301 33.7754 3.33301 33.3333V6.66667C3.33301 6.22464 3.5086 5.80072 3.82116 5.48816C4.13372 5.17559 4.55765 5 4.99967 5H17.3563L20.6897 8.33333ZM6.66634 8.33333V31.6667H33.333V11.6667H19.3097L15.9763 8.33333H6.66634ZM13.333 30C13.333 28.2319 14.0354 26.5362 15.2856 25.286C16.5359 24.0357 18.2316 23.3333 19.9997 23.3333C21.7678 23.3333 23.4635 24.0357 24.7137 25.286C25.964 26.5362 26.6663 28.2319 26.6663 30H13.333ZM19.9997 21.6667C18.8946 21.6667 17.8348 21.2277 17.0534 20.4463C16.272 19.6649 15.833 18.6051 15.833 17.5C15.833 16.3949 16.272 15.3351 17.0534 14.5537C17.8348 13.7723 18.8946 13.3333 19.9997 13.3333C21.1047 13.3333 22.1646 13.7723 22.946 14.5537C23.7274 15.3351 24.1663 16.3949 24.1663 17.5C24.1663 18.6051 23.7274 19.6649 22.946 20.4463C22.1646 21.2277 21.1047 21.6667 19.9997 21.6667Z" fill="#403D39"/>
</svg>
