<svg width="32" height="32" viewBox="0 0 50 50" fill="none" xmlns="http://www.w3.org/2000/svg">
<path d="M6.38328 15.6459C8.11663 12.1943 10.7757 9.29281 14.0633 7.26564C17.351 5.23847 21.1376 4.16553 24.9999 4.16675C30.6145 4.16675 35.3312 6.22925 38.9374 9.59383L32.9645 15.5688C30.8041 13.5042 28.0583 12.4522 24.9999 12.4522C19.5729 12.4522 14.9791 16.1188 13.3437 21.0418C12.927 22.2918 12.6895 23.6251 12.6895 25.0001C12.6895 26.3751 12.927 27.7084 13.3437 28.9584C14.9812 33.8834 19.5729 37.548 24.9999 37.548C27.802 37.548 30.1874 36.8084 32.0541 35.5584C33.1362 34.8458 34.0626 33.9213 34.7773 32.8406C35.492 31.7599 35.9802 30.5456 36.2124 29.2709H24.9999V21.2126H44.6208C44.8666 22.5751 44.9999 23.9959 44.9999 25.473C44.9999 31.8188 42.7291 37.1605 38.7874 40.7855C35.3416 43.9688 30.6249 45.8334 24.9999 45.8334C21.4447 45.8348 17.9482 44.9262 14.8435 43.194C11.7388 41.4618 9.12905 38.9638 7.26286 35.9377C5.39667 32.9116 4.33611 29.4582 4.18214 25.9063C4.02818 22.3544 4.78594 18.8221 6.38328 15.6459Z" fill="#FFFCF2"/>
</svg>
