<svg width="35" height="35" viewBox="0 0 60 60" fill="none" xmlns="http://www.w3.org/2000/svg">
<path d="M45.8375 45.8475H39.175V35.405C39.175 32.915 39.125 29.71 35.7 29.71C32.2275 29.71 31.6975 32.42 31.6975 35.2225V45.8475H25.0325V24.375H31.4325V27.3H31.52C32.415 25.615 34.59 23.8325 37.84 23.8325C44.59 23.8325 45.84 28.2775 45.84 34.06V45.8475H45.8375ZM17.5075 21.4375C16.8056 21.4394 16.1165 21.2502 15.514 20.8902C14.9116 20.5301 14.4185 20.0128 14.0878 19.3938C13.757 18.7747 13.6011 18.0773 13.6368 17.3763C13.6724 16.6754 13.8982 15.9973 14.29 15.415C14.6618 14.8594 15.1712 14.4097 15.7686 14.1095C16.3659 13.8093 17.0308 13.6691 17.6985 13.7023C18.3662 13.7355 19.0139 13.9411 19.5785 14.2991C20.1431 14.6571 20.6053 15.1553 20.9202 15.745C21.235 16.3347 21.3917 16.996 21.3749 17.6643C21.3582 18.3326 21.1687 18.9852 20.8247 19.5584C20.4808 20.1317 19.9943 20.6061 19.4125 20.9354C18.8307 21.2647 18.176 21.4377 17.5075 21.4375ZM20.8475 45.8475H14.165V24.375H20.85V45.8475H20.8475ZM49.175 7.5H10.8225C8.9825 7.5 7.5 8.95 7.5 10.7425V49.2575C7.5 51.05 8.985 52.5 10.82 52.5H49.165C51 52.5 52.5 51.05 52.5 49.2575V10.7425C52.5 8.95 51 7.5 49.165 7.5H49.175Z" fill="#FFFCF2"/>
</svg>
